<?xml version="1.0" ?><svg height="117px" version="1.1" viewBox="0 0 117 117" width="117px" xmlns="http://www.w3.org/2000/svg" xmlns:xlink="http://www.w3.org/1999/xlink"><title/><desc/><defs/><g fill="none" fill-rule="evenodd" id="Page-1" stroke="none" stroke-width="1"><g fill-rule="nonzero" id="clock"><path d="M58.5,116.3 C90.5,116.3 116.4,90.3 116.4,58.4 C116.4,26.4 90.4,0.5 58.5,0.5 C26.6,0.5 0.6,26.4 0.6,58.4 C0.6,90.3 26.5,116.3 58.5,116.3 Z M58.5,8.6 C86,8.6 108.3,30.9 108.3,58.4 C108.3,85.9 86,108.2 58.5,108.2 C31,108.2 8.7,85.8 8.7,58.4 C8.7,30.9 31,8.6 58.5,8.6 Z" fill="#4A4A4A" id="Shape"/><path d="M55.8,65.2 L75.1,65.2 C77.4,65.2 79.2,63.4 79.2,61.1 C79.2,58.8 77.4,57 75.1,57 L59.9,57 L59.9,33.2 C59.9,30.9 58.1,29.1 55.8,29.1 C53.5,29.1 51.7,30.9 51.7,33.2 L51.7,61.1 C51.7,63.4 53.5,65.2 55.8,65.2 Z" fill="#17AB13" id="Shape"/></g></g></svg>